<?xml version="1.0" standalone="no"?>
<!DOCTYPE svg PUBLIC "-//W3C//DTD SVG 20010904//EN"
 "http://www.w3.org/TR/2001/REC-SVG-20010904/DTD/svg10.dtd">
<svg version="1.0" xmlns="http://www.w3.org/2000/svg"
 width="720.000000pt" height="720.000000pt" viewBox="0 0 720.000000 720.000000"
 preserveAspectRatio="xMidYMid meet">
<metadata>
Created by potrace 1.11, written by Peter Selinger 2001-2013
</metadata>
<g transform="translate(0.000000,720.000000) scale(0.100000,-0.100000)"
fill="#000000" stroke="none">
<path d="M3660 6193 c-177 -222 -300 -421 -345 -562 -13 -39 -16 -74 -13 -130
12 -182 121 -347 284 -428 126 -62 253 -61 378 1 162 80 270 241 283 426 5 64
1 87 -21 153 -27 80 -88 196 -159 302 -97 144 -274 365 -293 365 -6 0 -57 -57
-114 -127z"/>
<path d="M2785 6161 c-321 -136 -588 -389 -716 -680 -47 -107 -84 -242 -100
-368 -14 -113 -6 -379 15 -493 7 -41 25 -147 40 -235 15 -88 38 -207 51 -265
139 -594 125 -1214 -36 -1676 -30 -87 -149 -347 -156 -341 -1 2 10 42 26 89
66 194 135 510 165 748 29 231 46 590 27 590 -5 0 -14 -37 -20 -82 -30 -211
-100 -453 -187 -652 -79 -182 -222 -414 -322 -525 l-32 -36 6 590 c3 325 10
619 15 655 6 36 20 85 31 110 25 50 100 130 123 130 22 0 19 11 -23 81 -21 35
-49 83 -62 106 -27 48 -29 49 -138 5 -117 -46 -223 -143 -280 -257 -18 -37
-40 -52 -258 -174 -496 -277 -676 -428 -744 -627 -29 -82 -28 -251 1 -337 49
-147 155 -251 309 -303 42 -15 84 -19 177 -19 67 0 124 3 128 7 6 6 -33 219
-56 311 -10 37 -10 37 -62 37 -99 0 -157 57 -157 153 0 123 111 226 443 412
76 42 141 74 144 72 6 -6 -14 -1336 -22 -1479 -3 -50 -1 -88 4 -88 5 0 98 18
207 41 l198 40 66 59 c82 73 141 135 270 280 296 334 467 641 565 1015 61 230
69 302 70 590 0 339 -26 531 -130 965 -86 358 -107 534 -86 719 29 244 107
420 262 586 75 80 215 191 305 241 35 20 64 38 64 40 0 12 -44 -1 -125 -35z"/>
<path d="M3165 5820 c-160 -41 -302 -93 -450 -164 -131 -63 -302 -163 -324
-190 -12 -14 -20 -270 -9 -281 3 -3 69 37 147 90 172 116 362 211 537 267
l132 43 11 50 c6 28 27 86 46 130 19 44 35 81 35 82 0 5 -15 2 -125 -27z"/>
<path d="M4263 5838 c46 -107 77 -190 82 -218 l6 -35 134 -43 c588 -190 1095
-662 1340 -1247 25 -60 47 -111 49 -112 2 -2 44 10 94 27 49 16 100 30 112 30
25 0 25 4 -27 130 -119 290 -309 574 -537 804 -333 334 -747 560 -1230 670
-21 5 -27 4 -23 -6z"/>
<path d="M1792 4893 c-151 -204 -275 -447 -358 -700 -30 -91 -53 -168 -51
-170 2 -2 26 6 53 18 27 11 85 29 128 38 44 9 83 24 87 32 5 8 31 74 60 147
29 73 81 185 116 249 l65 115 -12 66 c-6 37 -14 113 -17 169 -3 57 -9 103 -14
103 -4 0 -30 -30 -57 -67z"/>
<path d="M2680 4395 l0 -325 30 0 30 0 1 198 0 197 43 -158 c43 -157 50 -176
63 -164 3 4 25 78 49 164 l43 158 0 -197 1 -198 30 0 30 0 0 325 0 325 -30 0
c-33 0 -26 18 -86 -222 -21 -87 -41 -158 -44 -158 -3 0 -23 71 -44 158 -60
240 -53 222 -86 222 l-30 0 0 -325z"/>
<path d="M3261 4413 c-29 -170 -55 -316 -58 -325 -3 -15 2 -18 30 -18 35 0 35
0 42 57 10 83 10 83 75 83 l58 0 7 -57 c4 -31 9 -62 12 -70 7 -18 63 -17 63 2
0 14 -95 571 -105 613 -4 17 -12 22 -38 22 l-32 0 -54 -307z m109 26 c11 -68
22 -136 25 -151 4 -27 4 -28 -45 -28 -33 0 -50 4 -50 13 0 23 44 297 47 293 2
-1 12 -59 23 -127z"/>
<path d="M3699 4693 c-6 -16 -9 -62 -7 -103 l3 -75 98 -121 97 -121 0 -77 0
-76 -65 0 -65 0 0 80 0 80 -35 0 -35 0 0 -79 c0 -44 4 -91 10 -105 9 -26 10
-26 125 -26 l115 0 11 28 c6 15 9 66 7 113 l-3 86 -97 120 -98 120 0 67 0 66
65 0 65 0 0 -75 0 -75 35 0 35 0 0 74 c0 41 -4 86 -10 100 -9 26 -10 26 -125
26 l-115 0 -11 -27z"/>
<path d="M4150 4695 c0 -23 3 -25 50 -25 l50 0 0 -300 0 -300 35 0 35 0 0 300
0 300 50 0 c47 0 50 2 50 25 l0 25 -135 0 -135 0 0 -25z"/>
<path d="M4610 4395 l0 -325 110 0 110 0 0 25 c0 25 -1 25 -80 25 l-80 0 0
130 0 130 70 0 c68 0 70 1 70 25 0 24 -2 25 -70 25 l-70 0 0 120 0 120 75 0
c73 0 75 1 75 25 l0 25 -105 0 -105 0 0 -325z"/>
<path d="M5050 4395 l0 -325 30 0 30 0 0 300 0 300 70 0 70 0 0 -120 0 -120
-55 0 c-30 0 -55 -3 -55 -7 0 -5 27 -84 59 -178 l59 -170 36 -3 36 -3 -55 155
-54 156 34 0 c59 0 65 15 65 166 0 75 -5 144 -10 155 -10 17 -22 19 -135 19
l-125 0 0 -325z"/>
<path d="M6148 4129 c-260 -33 -481 -217 -599 -499 -31 -73 -79 -263 -79 -313
0 -60 -113 -314 -191 -428 -45 -66 -147 -179 -190 -210 l-28 -20 20 46 c94
211 149 463 149 675 0 190 -34 301 -121 395 -120 130 -342 108 -503 -50 -31
-31 -56 -52 -56 -48 0 5 4 25 9 46 l9 38 -36 -6 c-21 -3 -116 -23 -212 -43
l-175 -37 -66 -365 c-60 -328 -71 -376 -112 -475 -97 -241 -192 -386 -274
-421 -43 -19 -61 -9 -74 40 -18 64 -6 157 86 668 47 259 84 473 82 474 -2 2
-326 -63 -403 -81 -18 -4 -23 -17 -34 -90 -7 -47 -15 -85 -17 -85 -2 0 -17 16
-34 35 -17 19 -59 49 -95 66 -60 30 -68 31 -158 27 -84 -3 -102 -8 -168 -41
-191 -94 -323 -322 -384 -662 -25 -143 -26 -454 0 -544 25 -90 50 -136 105
-191 79 -79 183 -100 303 -59 106 35 213 121 283 228 26 38 45 52 45 33 0 -20
79 -87 129 -110 48 -22 63 -24 147 -20 83 5 103 10 177 45 56 27 105 61 150
103 37 34 67 61 67 59 0 -2 -27 -150 -59 -329 -32 -179 -58 -326 -57 -327 1
-2 419 87 422 90 1 1 61 330 133 732 147 825 141 804 256 921 64 66 117 90
159 74 77 -29 76 -310 0 -584 -31 -113 -105 -267 -140 -295 -31 -24 -82 -27
-110 -6 -10 8 -22 15 -26 15 -4 0 -32 -35 -63 -77 -63 -89 -64 -85 31 -129
173 -81 439 -44 679 95 99 58 262 215 333 323 l50 77 31 -55 c85 -149 238
-223 436 -210 326 20 622 199 816 491 51 76 142 262 165 337 14 46 15 60 5 72
-21 25 -95 56 -132 56 -34 -1 -34 -2 -68 -88 -113 -293 -331 -503 -578 -558
-171 -38 -280 18 -302 153 l-8 50 71 6 c107 9 261 52 356 98 198 98 312 287
313 524 1 128 -19 183 -97 261 -50 50 -73 64 -126 81 -81 26 -155 33 -242 22z
m60 -361 c27 -27 7 -160 -36 -243 -24 -48 -53 -76 -109 -104 -47 -23 -163 -44
-163 -28 0 24 64 197 90 242 61 106 175 176 218 133z m-2980 -661 c54 -49 55
-62 11 -308 -44 -248 -62 -297 -138 -381 -24 -27 -57 -56 -72 -64 -32 -16 -89
-21 -108 -9 -57 35 -54 268 5 474 60 209 157 332 249 316 16 -3 40 -15 53 -28z"/>
<path d="M2012 2009 c-13 -16 -19 -29 -15 -29 11 0 53 43 53 53 0 15 -16 5
-38 -24z"/>
<path d="M2982 1588 c-7 -7 -12 -20 -12 -30 0 -16 -28 -17 -457 -20 l-458 -3
-45 -28 c-25 -15 -65 -45 -89 -66 -52 -47 -96 -55 -289 -49 -119 3 -125 4
-145 29 -44 53 -99 44 -117 -19 -13 -47 -13 -296 0 -341 11 -41 24 -51 65 -51
22 0 38 9 57 30 l26 30 160 0 c89 0 173 -5 187 -10 15 -6 43 -26 63 -45 20
-19 49 -40 65 -46 15 -6 27 -15 27 -19 0 -22 151 -30 536 -30 l409 0 15 -33
15 -32 1830 -2 c1609 -3 1834 -1 1861 12 18 8 37 15 42 15 17 0 72 51 72 66 0
8 4 14 9 14 22 0 36 110 36 280 -1 170 -13 260 -35 260 -6 0 -10 6 -10 13 0
17 -46 58 -84 75 -41 17 -3716 18 -3734 0z m2461 -85 c-358 -2 -948 -2 -1310
0 -362 1 -68 2 652 2 721 0 1017 -1 658 -2z m-2456 -54 c7 -18 10 -36 7 -40
-3 -5 -156 -9 -339 -9 -320 0 -335 1 -345 19 -5 11 -10 29 -10 40 0 21 3 21
338 21 l338 0 11 -31z m3587 -104 c9 -49 16 -113 16 -142 0 -61 -25 -176 -46
-212 -15 -25 -15 -25 -9 14 25 152 33 275 24 349 -6 44 -13 84 -16 90 -4 8 -2
8 5 1 6 -5 18 -50 26 -100z m-3464 -18 c20 -120 3 -281 -33 -331 -11 -15 -11
-1 1 75 8 58 12 147 10 231 -4 145 2 151 22 25z m363 33 c-5 -18 -3 -19 21
-10 36 13 115 13 157 -1 45 -16 44 -14 20 -47 -13 -19 -36 -34 -65 -42 -39
-11 -49 -10 -90 8 -53 24 -74 58 -57 91 15 27 21 27 14 1z m3306 -126 c1 -119
-13 -205 -42 -256 -20 -37 -22 -38 -79 -38 -32 0 -58 2 -58 4 0 3 5 17 11 33
18 48 30 115 38 208 l8 90 1 -88 2 -88 47 3 48 3 8 45 c5 25 6 88 4 140 -3 54
-1 84 3 70 4 -14 8 -70 9 -126z m-302 -36 c-3 -70 -13 -152 -23 -190 l-18 -68
-1649 0 c-906 0 -1646 4 -1643 8 18 29 46 175 48 244 l2 83 5 -85 6 -85 1620
0 1620 0 14 108 c8 59 17 107 19 107 3 0 2 -55 -1 -122z m-4766 -28 c196 0
190 2 282 -66 32 -24 65 -44 72 -44 8 0 17 33 25 98 7 53 15 92 17 85 5 -15
-15 -231 -22 -244 -9 -14 -63 18 -119 71 -28 26 -61 52 -73 59 -14 7 -86 11
-197 11 l-176 0 2 58 c1 49 2 51 5 15 l4 -43 180 0z m1294 -67 c-3 -27 -11
-65 -17 -85 l-11 -38 -342 0 -342 0 14 73 c7 39 15 78 18 85 3 9 82 12 346 12
l341 0 -7 -47z"/>
<path d="M6646 1048 c-9 -37 -8 -38 39 -38 40 0 47 3 55 26 6 14 10 27 10 30
0 2 -22 4 -49 4 -42 0 -49 -3 -55 -22z"/>
<path d="M3197 1048 c-3 -12 -4 -25 -1 -30 3 -4 730 -8 1615 -8 l1609 0 10 26
c6 14 10 27 10 30 0 2 -728 4 -1619 4 l-1619 0 -5 -22z"/>
</g>
</svg>
